<mxfile host="65bd71144e" modified="2024-04-21T12:12:00.979Z" agent="Mozilla/5.0 (Windows NT 10.0; Win64; x64) AppleWebKit/537.36 (KHTML, like Gecko) Code/1.88.1 Chrome/120.0.6099.291 Electron/28.2.8 Safari/537.36" version="24.2.7" etag="wqTG0pEf1cLFiF4CaG5l" type="embed">
    <diagram id="8YR5QQaOLXZEinUU1bNh" name="第1頁">
        <mxGraphModel dx="1130" dy="573" grid="1" gridSize="10" guides="1" tooltips="1" connect="1" arrows="1" fold="1" page="1" pageScale="1" pageWidth="827" pageHeight="1169" math="0" shadow="0">
            <root>
                <mxCell id="0"/>
                <mxCell id="1" parent="0"/>
                <mxCell id="2" value="" style="rounded=0;whiteSpace=wrap;html=1;" vertex="1" parent="1">
                    <mxGeometry x="350" y="170" width="120" height="60" as="geometry"/>
                </mxCell>
                <mxCell id="3" value="&lt;font style=&quot;font-size: 20px;&quot;&gt;代銷公司&lt;/font&gt;" style="rounded=0;whiteSpace=wrap;html=1;dashed=1;" vertex="1" parent="1">
                    <mxGeometry x="290" y="170" width="180" height="60" as="geometry"/>
                </mxCell>
                <mxCell id="4" value="" style="endArrow=classic;html=1;dashed=1;dashPattern=8 8;" edge="1" parent="1">
                    <mxGeometry width="50" height="50" relative="1" as="geometry">
                        <mxPoint x="409.5" y="230" as="sourcePoint"/>
                        <mxPoint x="409.5" y="300" as="targetPoint"/>
                    </mxGeometry>
                </mxCell>
                <mxCell id="5" value="&lt;font style=&quot;font-size: 21px;&quot;&gt;代銷管理者&lt;/font&gt;" style="rounded=0;whiteSpace=wrap;html=1;dashed=1;" vertex="1" parent="1">
                    <mxGeometry x="270" y="310" width="204" height="60" as="geometry"/>
                </mxCell>
                <mxCell id="6" value="&lt;font style=&quot;font-size: 17px;&quot;&gt;預約型買家|現場即時參觀買家&lt;/font&gt;" style="rounded=0;whiteSpace=wrap;html=1;dashed=1;fillColor=default;strokeColor=#000000;" vertex="1" parent="1">
                    <mxGeometry x="210" y="440" width="260" height="60" as="geometry"/>
                </mxCell>
                <mxCell id="7" value="" style="endArrow=classic;html=1;dashed=1;dashPattern=8 8;" edge="1" parent="1">
                    <mxGeometry width="50" height="50" relative="1" as="geometry">
                        <mxPoint x="390" y="360" as="sourcePoint"/>
                        <mxPoint x="390" y="430" as="targetPoint"/>
                        <Array as="points">
                            <mxPoint x="390.5" y="430"/>
                        </Array>
                    </mxGeometry>
                </mxCell>
                <mxCell id="8" value="&lt;font style=&quot;font-size: 18px;&quot;&gt;綻幣軟體設計&lt;/font&gt;" style="rounded=0;whiteSpace=wrap;html=1;dashed=1;fillColor=default;strokeColor=#000000;" vertex="1" parent="1">
                    <mxGeometry x="520" y="440" width="260" height="60" as="geometry"/>
                </mxCell>
                <mxCell id="9" value="" style="endArrow=classic;html=1;dashed=1;dashPattern=8 8;" edge="1" parent="1">
                    <mxGeometry width="50" height="50" relative="1" as="geometry">
                        <mxPoint x="350" y="510" as="sourcePoint"/>
                        <mxPoint x="350" y="580" as="targetPoint"/>
                        <Array as="points">
                            <mxPoint x="350.5" y="580"/>
                        </Array>
                    </mxGeometry>
                </mxCell>
                <mxCell id="12" value="&lt;font style=&quot;font-size: 17px;&quot;&gt;Line Bot&amp;nbsp; 公開頻道|&lt;/font&gt;" style="rounded=0;whiteSpace=wrap;html=1;strokeColor=default;dashed=1;dashPattern=12 12;" vertex="1" parent="1">
                    <mxGeometry x="280" y="600" width="260" height="60" as="geometry"/>
                </mxCell>
            </root>
        </mxGraphModel>
    </diagram>
</mxfile>